<svg xmlns="http://www.w3.org/2000/svg" viewBox="0 0 1920 1080" preserveAspectRatio="xMidYMid slice">
  <defs>
    <filter id="glow" x="-50%" y="-50%" width="200%" height="200%">
      <feGaussianBlur stdDeviation="3" result="blur"/>
      <feMerge>
        <feMergeNode in="blur"/>
        <feMergeNode in="SourceGraphic"/>
      </feMerge>
    </filter>
    <radialGradient id="vignette" cx="50%" cy="45%" r="70%">
      <stop offset="0%" stop-color="#0b0f14" stop-opacity="0"/>
      <stop offset="60%" stop-color="#0b0f14" stop-opacity=".45"/>
      <stop offset="100%" stop-color="#0b0f14" stop-opacity=".85"/>
    </radialGradient>
  </defs>

  <!-- blaga plava magla ispod mreže -->
  <rect width="100%" height="100%" fill="#0b0f14"/>
  <g opacity="0.15">
    <radialGradient id="g1" cx="30%" cy="40%" r="35%">
      <stop offset="0%" stop-color="#19b5ff"/>
      <stop offset="100%" stop-color="#19b5ff" stop-opacity="0"/>
    </radialGradient>
    <radialGradient id="g2" cx="70%" cy="55%" r="38%">
      <stop offset="0%" stop-color="#19b5ff"/>
      <stop offset="100%" stop-color="#19b5ff" stop-opacity="0"/>
    </radialGradient>
    <circle cx="520" cy="420" r="420" fill="url(#g1)"/>
    <circle cx="1380" cy="620" r="460" fill="url(#g2)"/>
  </g>

  <!-- linije (mreža) -->
  <g stroke="#19b5ff" stroke-opacity="0.55" stroke-width="1.4" filter="url(#glow)">
    <path d="M240,260 C520,220 820,200 1120,260" fill="none"/>
    <path d="M260,540 C560,520 860,560 1160,600" fill="none"/>
    <path d="M300,820 C640,760 980,760 1340,820" fill="none"/>

    <path d="M480,180 C620,300 760,360 940,400" fill="none"/>
    <path d="M480,380 C700,420 920,500 1240,520" fill="none"/>
    <path d="M420,640 C700,660 980,720 1460,760" fill="none"/>

    <path d="M1260,220 C1400,320 1520,420 1680,540" fill="none"/>
    <path d="M980,300 C1120,380 1260,460 1500,520" fill="none"/>
    <path d="M960,760 C1160,740 1360,760 1700,820" fill="none"/>
  </g>

  <!-- čvorovi (točke) -->
  <g fill="#19b5ff" filter="url(#glow)" opacity="0.95">
    <circle cx="240" cy="260" r="2.6"/><circle cx="520" cy="220" r="2.2"/><circle cx="820" cy="200" r="2.2"/><circle cx="1120" cy="260" r="2.6"/>
    <circle cx="260" cy="540" r="2.2"/><circle cx="560" cy="520" r="2.2"/><circle cx="860" cy="560" r="2.2"/><circle cx="1160" cy="600" r="2.2"/>
    <circle cx="300" cy="820" r="2.4"/><circle cx="640" cy="760" r="2.2"/><circle cx="980" cy="760" r="2.2"/><circle cx="1340" cy="820" r="2.4"/>

    <circle cx="480" cy="180" r="2.2"/><circle cx="620" cy="300" r="2.0"/><circle cx="760" cy="360" r="2.0"/><circle cx="940" cy="400" r="2.2"/>
    <circle cx="480" cy="380" r="2.2"/><circle cx="700" cy="420" r="2.0"/><circle cx="920" cy="500" r="2.0"/><circle cx="1240" cy="520" r="2.2"/>
    <circle cx="420" cy="640" r="2.2"/><circle cx="700" cy="660" r="2.0"/><circle cx="980" cy="720" r="2.0"/><circle cx="1460" cy="760" r="2.2"/>

    <circle cx="1260" cy="220" r="2.2"/><circle cx="1400" cy="320" r="2.0"/><circle cx="1520" cy="420" r="2.0"/><circle cx="1680" cy="540" r="2.2"/>
    <circle cx="980" cy="300" r="2.2"/><circle cx="1120" cy="380" r="2.0"/><circle cx="1260" cy="460" r="2.0"/><circle cx="1500" cy="520" r="2.2"/>
    <circle cx="960" cy="760" r="2.2"/><circle cx="1160" cy="740" r="2.0"/><circle cx="1360" cy="760" r="2.0"/><circle cx="1700" cy="820" r="2.2"/>
  </g>

  <!-- vignette -->
  <rect width="100%" height="100%" fill="url(#vignette)"/>
</svg>
